<?xml version="1.0" encoding="UTF-8"?>
<svg width="731px" height="477px" viewBox="0 0 731 477" version="1.1" xmlns="http://www.w3.org/2000/svg" xmlns:xlink="http://www.w3.org/1999/xlink">
    <!-- Generator: Sketch 60.1 (88133) - https://sketch.com -->
    <title>55896</title>
    <desc>Created with Sketch.</desc>
    <g id="55896" stroke="none" stroke-width="1" fill="none" fill-rule="evenodd">
        <path d="M567.967125,241.400551 L567.937309,241.853061 C567.832954,243.378665 568.858282,244.710337 570.228145,244.82485 C571.596353,244.941209 572.788979,243.79793 572.893334,242.272325 L572.92315,241.806886 C573.024191,240.281282 571.995551,238.953304 570.627344,238.840639 C569.259137,238.727973 568.068167,239.874947 567.968781,241.400551 L567.967125,241.400551 M567.017458,255.198705 L566.958183,255.647716 C566.754011,257.161051 567.681017,258.572758 569.031186,258.801883 C570.379708,259.02916 571.63767,257.98701 571.840195,256.473676 L571.902764,256.013577 C572.103643,254.498395 571.171697,253.088536 569.821528,252.863106 C568.473006,252.639524 567.216691,253.68537 567.017458,255.198705 M564.080249,269.998329 L563.991892,270.442119 C563.690823,271.936212 564.517126,273.422909 565.840848,273.763148 C567.162933,274.103387 568.476837,273.16773 568.777906,271.673637 L568.869536,271.215053 C569.167332,269.72096 568.33612,268.237962 567.014035,267.901421 C565.691949,267.56488 564.378045,268.502387 564.080249,269.998329 M560.200134,283.804099 L560.059585,284.239328 C559.585233,285.706145 560.453902,287.260008 561.999938,287.710055 C563.545974,288.160101 565.183756,287.335942 565.658108,285.869125 L565.802561,285.420931 C566.273009,283.952262 565.400436,282.400251 563.852448,281.953909 C562.306412,281.507567 560.66863,282.33543 560.200134,283.804099 M555.303266,297.613087 L555.12858,298.039845 C554.546294,299.472267 555.287739,301.086525 556.788097,301.643166 C558.286514,302.199807 559.975144,301.491017 560.557431,300.05674 L560.734058,299.620704 C561.312462,298.186427 560.567135,296.574024 559.066777,296.021094 C557.566419,295.466309 555.881671,296.180664 555.301325,297.613087 L555.303266,297.613087 M549.413293,311.433777 L549.210516,311.846716 C548.524939,313.238059 549.139062,314.902834 550.583603,315.563164 C552.030075,316.223494 553.756572,315.630127 554.444081,314.238784 L554.652651,313.814685 C555.334366,312.421482 554.71638,310.758566 553.269908,310.100096 C551.821505,309.443486 550.095008,310.038713 549.413293,311.433777 M542.536098,324.26074 L542.303634,324.659832 C541.519787,326.004435 542.009692,327.710832 543.394872,328.469852 C544.780052,329.230737 546.537943,328.757049 547.319869,327.412445 L547.560018,327.002164 C548.340022,325.655696 547.846276,323.949299 546.459175,323.192144 C545.072073,322.434989 543.316103,322.914272 542.536098,324.26074 M535.664419,336.09705 L535.406189,336.480498 C534.532032,337.772998 534.895467,339.512543 536.217223,340.367351 C537.538979,341.222159 539.319811,340.866769 540.193968,339.574268 L540.457936,339.181468 C541.328267,337.887097 540.961007,336.147553 539.637338,335.294615 C538.313669,334.443548 536.53475,334.80268 535.664419,336.09705 M526.800234,347.942986 L526.518398,348.310743 C525.558632,349.545355 525.798574,351.310963 527.051602,352.254747 C528.30463,353.198531 530.096574,352.962116 531.054436,351.727504 L531.347698,351.352242 C532.301751,350.115753 532.058001,348.350146 530.803068,347.408238 C529.548136,346.466331 527.756192,346.706498 526.800234,347.942986 M517.942199,359.799553 L517.6368,360.146024 C516.599204,361.319128 516.718708,363.104204 517.898571,364.132317 C519.08033,365.160431 520.878578,365.043686 521.914278,363.870582 L522.229161,363.514696 C523.261067,362.339709 523.139666,360.554633 521.956009,359.530285 C520.772353,358.504055 518.976002,358.624566 517.942199,359.799553 M508.089278,369.66704 L507.762375,369.993853 C506.653172,371.100861 506.653172,372.89361 507.758596,374.002507 C508.865909,375.109516 510.659152,375.109516 511.768355,374.004397 L512.104706,373.668138 C513.20824,372.559241 513.204461,370.764603 512.097148,369.659483 C510.987945,368.554364 509.192812,368.558142 508.089278,369.66704 M497.238632,380.542269 L496.89215,380.849478 C495.719006,381.884887 495.602257,383.682629 496.632288,384.864056 C497.660437,386.045484 499.445573,386.163057 500.618717,385.125753 L500.972731,384.812855 C502.143992,383.773654 502.255092,381.975911 501.225061,380.79638 C500.193146,379.618746 498.40801,379.504964 497.238632,380.542269 M485.394061,389.429571 L485.028114,389.716945 C483.795155,390.678031 483.566204,392.470789 484.515788,393.721152 C485.463497,394.969612 487.231301,395.201795 488.464259,394.238806 L488.837713,393.945722 C490.066918,392.98083 490.292116,391.188072 489.342531,389.941515 C488.389193,388.694958 486.621389,388.464678 485.392184,389.429571 L485.394061,389.429571 M473.551145,398.326685 L473.167592,398.590395 C471.882225,399.475162 471.543576,401.25616 472.409843,402.568978 C473.27611,403.881795 475.019869,404.227676 476.305236,403.34291 L476.698143,403.073467 C477.979769,402.184878 478.316547,400.40388 477.446538,399.092973 C476.576529,397.782067 474.83277,397.438097 473.549274,398.326685 L473.551145,398.326685 M461.708477,405.232958 L461.312892,405.472837 C459.978725,406.276915 459.532759,408.040511 460.316465,409.412624 C461.098305,410.782818 462.814995,411.241468 464.147296,410.435472 L464.552211,410.189835 C465.884512,409.381919 466.326746,407.618323 465.541174,406.248129 C464.755601,404.879855 463.038911,404.425042 461.708477,405.232958 M448.867993,413.148745 L448.458413,413.364569 C447.082599,414.087198 446.535252,415.827286 447.233399,417.251345 C447.931545,418.673477 449.612682,419.241944 450.988497,418.519316 L451.405523,418.299637 C452.779475,417.573155 453.324961,415.833067 452.624952,414.410935 C451.923082,412.988803 450.241945,412.424189 448.867993,413.148745 M436.028535,419.074498 L435.60862,419.266097 C434.196515,419.902826 433.548062,421.613671 434.161213,423.084533 C434.772505,424.555395 436.413148,425.230831 437.82711,424.592167 L438.256316,424.398632 C439.666563,423.758033 440.3113,422.047188 439.698149,420.576326 C439.08314,419.107399 437.44064,418.435834 436.028535,419.074498 M422.192173,424.01068 L421.761895,424.173998 C420.317127,424.726167 419.573414,426.398229 420.098279,427.912806 C420.623143,429.425439 422.219992,430.207031 423.664761,429.656806 L424.102457,429.4896 C425.545371,428.935486 426.287229,427.26148 425.760509,425.748847 C425.231936,424.236214 423.635086,423.458511 422.192173,424.01068 M408.354334,428.957151 L407.917233,429.093863 C406.446645,429.556731 405.607633,431.187509 406.046586,432.738213 C406.483688,434.288917 408.030212,435.171685 409.5008,434.710771 L409.949014,434.570153 C411.417749,434.105332 412.253058,432.472601 411.812252,430.92385 C411.373298,429.373146 409.824922,428.492331 408.354334,428.957151 M394.517673,432.898988 L394.073715,432.990555 C392.580907,433.299595 391.654144,434.619143 392.003761,435.938691 C392.353378,437.256604 393.846187,438.075803 395.338995,437.768399 L395.792202,437.673561 C397.283161,437.362887 398.208073,436.041704 397.854757,434.723791 C397.50329,433.404243 396.010482,432.588314 394.517673,432.898988 M379.679187,435.870384 L379.229969,435.939398 C377.721485,436.171085 376.710282,437.446185 376.97094,438.788656 C377.229748,440.129483 378.666136,441.028297 380.174621,440.79661 L380.634931,440.725954 C382.143415,440.490981 383.15092,439.214237 382.888414,437.87341 C382.62406,436.532582 381.187672,435.635411 379.679187,435.870384 M365.840945,437.849569 L365.388313,437.895791 C363.867837,438.050966 362.775977,439.277504 362.947792,440.636106 C363.121455,441.994708 364.494133,442.971977 366.014608,442.816803 L366.476478,442.76893 C367.996954,442.612104 369.086966,441.383915 368.911456,440.026964 C368.735945,438.666711 367.361421,437.692744 365.840945,437.849569 M351.00183,439.837252 L350.547525,439.860477 C349.020246,439.93679 347.849394,441.11134 347.934345,442.483308 C348.021144,443.855276 349.328657,444.905403 350.855935,444.829091 L351.321321,444.805865 C352.846753,444.726235 354.013912,443.550025 353.925267,442.178058 C353.838469,440.80609 352.527262,439.757621 351.00183,439.837252 M336.158071,439.833 L335.701931,439.833 C334.170999,439.831335 332.93,440.949668 332.93,442.331334 C332.928155,443.711334 334.165459,444.831333 335.696391,444.833 L336.161765,444.833 C337.69085,444.831333 338.93,443.711334 338.93,442.331334 C338.928153,440.949668 337.68531,439.831335 336.156224,439.833 L336.158071,439.833 M321.314318,439.860477 L320.860013,439.837252 C319.332736,439.757621 318.023378,440.80609 317.934733,442.178058 C317.846088,443.550025 319.013246,444.726235 320.540523,444.805865 L321.004061,444.829091 C322.531338,444.905403 323.83885,443.855276 323.925648,442.483308 C324.010599,441.11134 322.841595,439.93679 321.314318,439.860477 M307.472595,437.895815 L307.020129,437.849594 C305.500215,437.69277 304.124351,438.665077 303.948905,440.023666 C303.771612,441.382255 304.861223,442.612083 306.381137,442.768907 L306.84653,442.816779 C308.364598,442.971952 309.736769,441.996344 309.912214,440.637755 C310.083966,439.279166 308.992509,438.050988 307.472595,437.895815 M292.631231,435.939437 L292.18199,435.870431 C290.673427,435.635482 289.235115,436.530917 288.972596,437.873249 C288.706379,439.213937 289.715785,440.490548 291.224348,440.725497 L291.682833,440.796146 C293.191396,441.029452 294.627859,440.130731 294.888529,438.7884 C295.151049,437.447712 294.139794,436.172743 292.631231,435.939437 M277.788166,432.991183 L277.344216,432.899608 C275.851434,432.587272 274.356801,433.403269 274.005341,434.721292 C273.65203,436.04095 274.575077,437.362244 276.067859,437.672944 L276.521059,437.76779 C278.013841,438.076854 279.506624,437.257587 279.856235,435.939564 C280.205845,434.619906 279.279099,433.300248 277.788166,432.991183 M263.945111,429.094072 L263.50612,428.957339 C262.035407,428.492448 260.486899,429.371444 260.047907,430.922382 C259.607064,432.471368 260.440591,434.104346 261.911304,434.569237 L262.357705,434.709876 C263.828417,435.172814 265.375074,434.289912 265.814065,432.738973 C266.251204,431.188034 265.413972,429.555056 263.945111,429.094072 M250.099018,424.176887 L249.668746,424.011659 C248.225852,423.457661 246.629024,424.235202 246.100458,425.74752 C245.571891,427.259837 246.313739,428.935438 247.756633,429.487492 L248.196178,429.656607 C249.639072,430.206718 251.2359,429.427233 251.760757,427.914915 C252.287469,426.400654 251.543767,424.726997 250.099018,424.176887 M236.253224,419.267125 L235.833313,419.075562 C234.421222,418.435081 232.778738,419.106521 232.163735,420.577112 C231.546874,422.045767 232.193463,423.756297 233.603696,424.396777 L234.032897,424.592211 C235.444988,425.230757 237.085614,424.555446 237.698759,423.084856 C238.311903,421.614265 237.663456,419.905671 236.253224,419.267125 M223.402552,413.365852 L222.994782,413.150016 C221.618791,412.423495 219.937439,412.988138 219.235479,414.410346 C218.535381,415.832553 219.079074,417.572734 220.453203,418.299255 L220.872144,418.518946 C222.248135,419.241612 223.929487,418.675042 224.627723,417.250907 C225.324097,415.828699 224.77668,414.088518 223.402552,413.365852 M210.548937,405.472784 L210.151495,405.232924 C208.821092,404.425076 207.104442,404.879851 206.318888,406.248011 C205.533334,407.616172 205.975558,409.38154 207.305961,410.189388 L207.710867,410.435005 C209.043136,411.240934 210.759786,410.78424 211.543474,409.414161 C212.327162,408.042163 211.881207,406.278713 210.548937,405.472784 M198.694396,398.590926 L198.310911,398.327242 C197.027638,397.438744 195.282313,397.780768 194.412457,399.091542 C193.544471,400.402316 193.879319,402.183134 195.162591,403.071633 L195.55543,403.342959 C196.838702,404.227636 198.582156,403.88179 199.450142,402.569106 C200.316258,401.258332 199.977668,399.477513 198.694396,398.590926 M186.835779,389.717556 L186.468048,389.430216 C185.237274,388.465439 183.469913,388.693788 182.51869,389.940196 C181.567467,391.186604 181.792608,392.979148 183.023382,393.943925 L183.398618,394.238877 C184.629392,395.201751 186.396753,394.969595 187.344223,393.721284 C188.29357,392.471071 188.064676,390.68043 186.833903,389.717556 L186.835779,389.717556 M174.970625,379.853206 L174.622372,379.544225 C173.451491,378.505444 171.666933,378.617284 170.637236,379.796338 C169.603773,380.973497 169.71672,382.770513 170.885718,383.809294 L171.243383,384.125857 C172.414264,385.162743 174.198822,385.045216 175.22852,383.866162 C176.256335,382.685212 176.141505,380.890092 174.970625,379.853206 M164.101429,369.997264 L163.770851,369.666777 C162.667665,368.558229 160.873098,368.554452 159.764245,369.659223 C158.655391,370.762106 158.651613,372.556179 159.7548,373.664728 L160.092934,374.002769 C161.198009,375.109429 162.992576,375.109429 164.09954,374.004657 C165.206505,372.897998 165.206505,371.103924 164.101429,369.997264 M154.227066,360.15056 L153.918015,359.800483 C152.886579,358.626032 151.08915,358.503693 149.906033,359.527573 C148.721019,360.551454 148.597777,362.335717 149.631109,363.510168 L149.945849,363.869656 C150.981077,365.042225 152.77661,365.160799 153.957831,364.135036 C155.140949,363.107392 155.260398,361.325011 154.227066,360.15056 M145.345459,348.313878 L145.061709,347.944322 C144.107624,346.708092 142.31562,346.466098 141.058741,347.405933 C139.801862,348.345768 139.558104,350.111007 140.512189,351.349113 L140.801652,351.726173 C141.757642,352.960527 143.55155,353.198769 144.80462,352.257058 C146.059594,351.315347 146.301448,349.550108 145.345459,348.313878 M136.4559,336.48371 L136.197657,336.098493 C135.327283,334.804463 133.548276,334.443556 132.224542,335.292529 C130.900808,336.143373 130.531617,337.882459 131.400078,339.176488 L131.664059,339.571055 C132.536347,340.865085 134.317266,341.222252 135.639087,340.369539 C136.962821,339.516825 137.328187,337.777739 136.4559,336.48371 M129.559035,323.662181 L129.328464,323.263097 C128.548366,321.914791 126.792184,321.435517 125.404915,322.190793 C124.015726,322.946068 123.519998,324.650565 124.298175,325.998871 L124.538353,326.407279 C125.318451,327.753721 127.074633,328.231129 128.461902,327.472124 C129.84917,326.714984 130.339133,325.008622 129.559035,323.662181 M122.651504,310.849245 L122.448766,310.436408 C121.76718,309.04169 120.04101,308.442891 118.594811,309.099338 C117.146682,309.753926 116.524951,311.416431 117.206538,312.81115 L117.413137,313.235144 C118.096654,314.628003 119.824756,315.223083 121.270954,314.564776 C122.717153,313.906469 123.335021,312.242104 122.651504,310.849245 M116.73291,298.041357 L116.562047,297.618131 C115.983442,296.183245 114.29811,295.466731 112.797232,296.019895 C111.296354,296.571203 110.546886,298.182432 111.125491,299.617318 L111.300237,300.053538 C111.880784,301.488423 113.568058,302.199369 115.068936,301.644349 C116.567872,301.089328 117.313457,299.476242 116.73291,298.041357 M111.802214,284.24149 L111.661664,283.806174 C111.191215,282.337217 109.557331,281.507339 108.009338,281.953769 C106.461345,282.398346 105.586817,283.948809 106.057266,285.417767 L106.20172,285.866049 C106.672169,287.333154 108.309957,288.159327 109.855998,287.711045 C111.403991,287.262763 112.272663,285.710447 111.802214,284.24149 M107.868848,270.445673 L107.780467,270.001764 C107.484228,268.50727 106.171608,267.565813 104.847531,267.900595 C103.525091,268.235376 102.693656,269.718772 102.989896,271.215115 L103.079914,271.670122 C103.379427,273.164615 104.693683,274.102373 106.016123,273.763892 C107.338563,273.425412 108.168361,271.940166 107.868848,270.445673 M104.902356,255.650539 L104.841447,255.201594 C104.642258,253.686634 103.387858,252.640942 102.039626,252.862644 C100.689748,253.086193 99.7563559,254.493997 99.9571915,256.008957 L100.016454,256.470835 C100.218936,257.983947 101.474982,259.027792 102.82486,258.802395 C104.173093,258.575151 105.104838,257.163652 104.902356,255.650539 M103.921475,240.855952 L103.891665,240.403527 C103.7923,238.87636 102.603225,237.7296 101.235292,237.840398 C99.8657031,237.951196 98.8372693,239.27708 98.9366349,240.804247 L98.9681006,241.267752 C99.0691223,242.794919 100.261509,243.937985 101.629442,243.825341 C102.999031,243.710849 104.024153,242.381273 103.923131,240.855952 L103.921475,240.855952 M102.93,227.060078 L102.93,226.605924 C102.93,225.075463 101.813333,223.834848 100.431667,223.833 C99.0516667,223.831156 97.93,225.069925 97.93,226.600386 L97.93,227.065616 C97.93,228.596077 99.0516667,229.833 100.431667,229.833 C101.813333,229.829308 102.93,228.588693 102.93,227.060078 M103.893103,212.262707 L103.922922,211.808434 C104.025629,210.283113 102.998554,208.953536 101.628568,208.840891 C100.260239,208.726399 99.067506,209.871313 98.9664551,211.396635 L98.9366368,211.861987 C98.8372424,213.389154 99.8659742,214.715039 101.23596,214.825837 C102.604289,214.934788 103.793709,213.788028 103.893103,212.262707 M104.843454,197.463609 L104.902726,197.014591 C105.103591,195.501234 104.173354,194.089506 102.82492,193.864073 C101.476487,193.636793 100.218608,194.680806 100.017743,196.194163 L99.9568244,196.656116 C99.7576053,198.17132 100.68949,199.579352 102.039569,199.802937 C103.389649,200.026523 104.644235,198.978814 104.843454,197.463609 M107.780514,183.664905 L107.868867,183.219283 C108.168287,181.72525 107.338747,180.240463 106.016717,179.902087 C104.694688,179.56371 103.38084,180.501179 103.08142,181.995212 L102.989794,182.451927 C102.693647,183.947809 103.52646,185.430748 104.848489,185.765426 C106.172154,186.100104 107.484366,185.158937 107.780514,183.664905 M111.660927,168.859148 L111.80148,168.423906 C112.273894,166.955196 111.403247,165.403141 109.857166,164.954934 C108.309132,164.506728 106.673253,165.332761 106.200839,166.79962 L106.056382,167.247826 C105.587873,168.716537 106.462424,170.268591 108.010457,170.713094 C109.556539,171.157596 111.192418,170.327858 111.660927,168.859148 M116.560262,156.048647 L116.733005,155.62375 C117.313343,154.18949 116.568026,152.577107 115.067686,152.022329 C113.569288,151.465695 111.882619,152.178186 111.302281,153.612446 L111.125656,154.050332 C110.547259,155.484592 111.294517,157.095119 112.796798,157.646187 C114.297137,158.19911 115.981865,157.482907 116.560262,156.048647 M122.448769,142.231235 L122.651506,141.816493 C123.335019,140.423479 122.717154,138.76079 121.270965,138.10241 C119.824776,137.44217 118.098618,138.037316 117.415105,139.430329 L117.206576,139.854371 C116.524994,141.249244 117.14672,142.910073 118.592909,143.566594 C120.039098,144.223114 121.765257,143.624248 122.446838,142.231235 L122.448769,142.231235 M129.32841,129.403012 L129.559002,129.003959 C130.33917,127.65762 129.849163,125.951388 128.46177,125.194305 C127.076299,124.435358 125.318038,124.910866 124.53787,126.257204 L124.299592,126.667446 C123.519423,128.015649 124.015195,129.720017 125.402588,130.475235 C126.791902,131.230452 128.550163,130.751215 129.32841,129.403012 M137.19856,116.567233 L137.456782,116.181933 C138.327085,114.889494 137.963662,113.150032 136.640036,112.297135 C135.318322,111.444237 133.537548,111.799611 132.667244,113.09392 L132.401372,113.486702 C131.531068,114.782882 131.90023,116.522344 133.225769,117.373371 C134.551308,118.222528 136.33017,117.861543 137.19856,116.567233 M145.061827,104.721583 L145.345538,104.353872 C146.301398,103.117536 146.059577,101.352146 144.804773,100.410355 C143.551873,99.4666878 141.758208,99.7049497 140.802348,100.941285 L140.512924,101.316501 C139.557065,102.554713 139.802694,104.320102 141.059402,105.260018 C142.31611,106.199933 144.107871,105.957919 145.061827,104.721583 M153.921488,93.8651847 L154.226844,93.5168703 C155.260503,92.3420154 155.141016,90.5590225 153.957524,89.5310245 C152.774032,88.5049092 150.977932,88.6235243 149.944273,89.7983793 L149.631331,90.1542247 C148.597672,91.3309624 148.720953,93.1139554 149.906341,94.1381878 C151.089833,95.1624203 152.88783,95.0400396 153.921488,93.8651847 M163.775164,82.997675 L164.10208,82.6689344 C165.207546,81.5617967 165.205657,79.7688381 164.098301,78.6617003 C162.990945,77.5564519 161.197633,77.5564519 160.092167,78.6635896 L159.755802,78.9998875 C158.650336,80.1089145 158.656005,81.9037624 159.765251,83.0090109 C160.876386,84.11237 162.669698,84.1067021 163.775164,82.997675 M174.625153,73.1200163 L174.971645,72.8128614 C176.14294,71.7757394 176.255926,69.9783141 175.225865,68.7989907 C174.195804,67.6196673 172.410616,67.5040102 171.239322,68.5411322 L170.885297,68.8558712 C169.715886,69.8948892 169.604782,71.6923146 170.636727,72.8697419 C171.668671,74.0490653 173.453859,74.1609304 174.625153,73.1200163 M186.47056,64.2341018 L186.834672,63.9466869 C188.065899,62.9835617 188.293,61.1905498 187.343304,59.9438164 C186.393608,58.6951797 184.625597,58.4648672 183.394371,59.4279924 L183.020874,59.7211175 C181.791524,60.6861462 181.568177,62.4810615 182.51975,63.7258914 C183.473199,64.9726247 185.24121,65.2010339 186.47056,64.2341018 M198.312871,55.3386342 L198.694572,55.0749391 C199.978137,54.1883123 200.316803,52.4055046 199.448619,51.0946727 C198.580436,49.7838408 196.836584,49.4379799 195.55302,50.3246067 L195.161963,50.5940343 C193.878398,51.4844828 193.543474,53.2653797 194.4154,54.5762116 C195.285454,55.8851326 197.031177,56.2271718 198.312871,55.3386342 M210.154245,47.4312112 L210.551782,47.191349 C211.882505,46.3854121 212.326701,44.6200266 211.542825,43.2518527 C210.758949,41.88176 209.041888,41.4250625 207.7093,42.2309994 L207.306163,42.4766182 C205.973575,43.2863929 205.533111,45.0517785 206.32072,46.4199523 C207.108328,47.7881261 208.825389,48.2409859 210.156112,47.4312112 L210.154245,47.4312112 M222.995825,40.5156014 L223.403578,40.2997814 C224.779511,39.575243 225.325043,37.8351946 224.624974,36.4130952 C223.926767,34.9909959 222.245485,34.4244685 220.871414,35.14708 L220.45249,35.3686808 C219.078419,36.0951462 218.534749,37.8351946 219.236679,39.257294 C219.93861,40.6793933 221.621754,41.2420668 222.995825,40.5156014 M235.833685,34.590036 L236.253522,34.3984318 C237.663504,33.7597509 238.311835,32.0507956 237.6988,30.5798941 C237.083906,29.1089926 235.443572,28.4354746 234.031732,29.0741555 L233.602607,29.2696306 C232.192626,29.9102469 231.548009,31.6211375 232.162903,33.092039 C232.781511,34.5610051 234.423704,35.2306523 235.833685,34.590036 M249.670674,28.6540816 L250.100929,28.488835 C251.543763,27.9367172 252.287435,26.2648111 251.760745,24.7503752 C251.234055,23.2378834 249.637293,22.4583086 248.196312,23.0104264 L247.754931,23.177617 C246.312096,23.733623 245.572134,25.4094173 246.100678,26.919965 C246.631078,28.4324568 248.229694,29.2081435 249.670674,28.6540816 M263.509245,23.7086902 L263.946312,23.5700499 C265.416782,23.1072647 266.252024,21.4748241 265.813106,19.9243962 C265.374187,18.3759208 263.825933,17.4933094 262.357315,17.9560946 L261.909137,18.0986403 C260.440518,18.5633781 259.607128,20.1958187 260.047899,21.7462467 C260.490522,23.294722 262.038775,24.173428 263.509245,23.7086902 M277.34601,19.7663023 L277.789952,19.6747308 C279.280858,19.364042 280.205738,18.044432 279.856134,16.7248219 C279.504679,15.4068471 278.011924,14.5892449 276.519168,14.8982985 L276.065977,14.9931404 C274.575071,15.3054645 273.652041,16.6267097 274.005345,17.9463197 C274.358649,19.2642945 275.855104,20.0786263 277.34601,19.7663023 M292.185182,16.7955672 L292.63257,16.726562 C294.141119,16.4916155 295.152364,15.2166615 294.887998,13.8743452 C294.625481,12.533672 293.190881,11.6366038 291.682332,11.8699072 L291.223851,11.9405555 C289.715302,12.1771449 288.707754,13.4553848 288.97212,14.7944152 C289.238335,16.1350884 290.676633,17.0305136 292.185182,16.7955672 M306.020907,14.816074 L306.47533,14.769843 C307.993767,14.6146391 309.08549,13.3862168 308.911848,12.0273571 C308.73636,10.6684975 307.363856,9.69269424 305.843572,9.84954924 L305.38176,9.89578019 C303.859629,10.0542863 302.7716,11.2843598 302.948936,12.6432194 C303.126272,14.0020791 304.500623,14.9745801 306.020907,14.816074 M320.862805,13.8287435 L321.316969,13.8038681 C322.843773,13.7259251 324.010568,12.5518049 323.925643,11.1803396 C323.837026,9.80887438 322.529919,8.75913132 321.003116,8.83707433 L320.53972,8.86194975 C319.01107,8.94155112 317.846121,10.1173297 317.934738,11.4904533 C318.025202,12.8619186 319.334155,13.9083449 320.860958,13.8287435 L320.862805,13.8287435 M335.705624,12.833 L336.161765,12.833 C337.69085,12.833 338.93,11.7129986 338.93,10.333 C338.93,8.95133292 337.69085,7.833 336.161765,7.833 L335.696391,7.833 C334.165459,7.83466667 332.928155,8.95633291 332.93,10.3363324 C332.931849,11.7179986 334.174692,12.8346648 335.705624,12.833 M350.54863,13.8056999 L351.002838,13.8289193 C352.52794,13.9068703 353.837017,12.8586784 353.925643,11.4870729 C354.010576,10.1154673 352.843669,8.93956853 351.316721,8.86161755 L350.853282,8.83673958 C349.324486,8.76210566 348.017256,9.81361461 347.934169,11.1852201 C347.851082,12.5568257 349.019835,13.7294074 350.54863,13.8056999 M364.390156,14.7705257 L364.84464,14.8167539 C366.363281,14.9719484 367.737818,13.997855 367.911482,12.6390772 C368.086994,11.2802994 366.995125,10.051951 365.474636,9.89510547 L365.012762,9.8488773 C363.492273,9.69533376 362.119584,10.6727292 361.947767,12.031507 C361.77595,13.3902848 362.869667,14.6169822 364.390156,14.7705257 M379.232965,16.7270922 L379.682058,16.7960957 C381.190122,17.0293933 382.62611,16.1323475 382.888543,14.7900646 C383.150976,13.4494246 382.140055,12.1728593 380.631991,11.9412046 L380.173657,11.8689152 C378.665593,11.6389035 377.231453,12.5375923 376.970868,13.8798752 C376.710284,15.2205151 377.723053,16.4954375 379.232965,16.7270922 M393.07515,19.6754092 L393.519022,19.7669969 C395.009692,20.0777408 396.504061,19.261629 396.85546,17.9417849 C397.206858,16.6235763 396.282125,15.3020966 394.791455,14.9913527 L394.336486,14.8981295 C392.843966,14.589021 391.351447,15.4100393 391.003747,16.7282479 C390.654198,18.048092 391.580781,19.3679362 393.0733,19.6754092 L393.07515,19.6754092 M407.919593,23.5712622 L408.356731,23.7099101 C409.825589,24.1727205 411.374096,23.290061 411.813086,21.7395484 C412.252077,20.1909887 411.416698,18.5584591 409.945988,18.0956487 L409.499588,17.9550481 C408.028877,17.4941904 406.482223,18.3788027 406.045085,19.9293153 C405.609799,21.4817806 406.44703,23.1104046 407.919593,23.5712622 M421.763594,28.492001 L422.193887,28.6553193 C423.635,29.2074905 425.233764,28.4297846 425.760503,26.9171466 C426.287242,25.4045086 425.545356,23.7285524 424.102388,23.1763813 L423.662821,23.0091745 C422.217999,22.4589476 420.622944,23.240542 420.09806,24.7551242 C419.573176,26.2697064 420.318771,27.9417741 421.763594,28.492001 M434.611745,33.4021968 L435.031596,33.5918564 C436.441627,34.2305058 438.083877,33.5570209 438.698792,32.0861918 C439.311849,30.617298 438.663494,28.9064914 437.253463,28.267842 L436.824324,28.0723765 C435.412435,27.4356623 433.772043,28.1130178 433.160844,29.583847 C432.547787,31.0566114 433.197999,32.7654826 434.611745,33.4021968 M448.462864,40.3033674 L448.870488,40.5172814 C450.244122,41.2418912 451.924869,40.6772352 452.626576,39.2530688 C453.324561,37.8308295 452.777341,36.0906099 451.405568,35.3660002 L450.986777,35.1463047 C449.609421,34.4236221 447.930535,34.9940595 447.23255,36.4162988 C446.534565,37.8404652 447.085508,39.5806848 448.461003,40.3033674 L448.462864,40.3033674 M461.311976,47.1945817 L461.709542,47.4344647 C463.042227,48.2404716 464.757547,47.7856534 465.54148,46.4154416 C466.327279,45.0452298 465.88305,43.2816099 464.552231,42.4736839 L464.147199,42.2299627 C462.812647,41.4239558 461.097328,41.8845312 460.315261,43.256662 C459.533195,44.6268738 459.97929,46.3904938 461.313842,47.1945817 L461.311976,47.1945817 M473.169404,55.0753631 L473.552826,55.3409057 C474.835888,56.227321 476.579056,55.883453 477.4469,54.5729338 C478.316614,53.2605042 477.979951,51.480032 476.695018,50.5917063 L476.304115,50.322343 C475.017312,49.4378381 473.274144,49.7855269 472.40817,51.0979564 C471.544067,52.410386 471.882601,54.1908582 473.169404,55.0753631 M485.028858,62.950587 L485.396538,63.237959 C486.625263,64.2009406 488.392377,63.9706624 489.343466,62.7241151 C490.29268,61.4756646 490.065694,59.6829202 488.836969,58.7199386 L488.45991,58.4249541 C487.227433,57.4638756 485.462195,57.6979601 484.514857,58.9464105 C483.565644,60.1967641 483.796381,61.9895086 485.028858,62.950587 M496.892974,72.813717 L497.241144,73.1226696 C498.411749,74.1613571 500.195885,74.0476322 501.22534,72.868684 C502.256676,71.6897358 502.141874,69.8928824 500.973151,68.8541949 L500.613689,68.5376606 C499.441203,67.502764 497.657066,67.6221751 496.629494,68.8011233 C495.601922,69.9819669 495.720488,71.7788203 496.892974,72.813717 M507.762015,82.6703435 L508.090666,83.0008438 C509.195611,84.1075475 510.989967,84.1113246 512.096801,83.0065095 C513.205524,81.9016944 513.207413,80.1075501 512.104356,78.9989578 L511.766262,78.6627919 C510.657539,77.5560882 508.865072,77.5560882 507.758238,78.6646804 C506.653292,79.7713842 506.653292,81.5655284 507.762015,82.6703435 M517.63525,93.5185059 L517.944312,93.8667501 C518.975781,95.0413684 520.773266,95.1618421 521.956422,94.1359335 C523.139577,93.1119073 523.260926,91.327391 522.229458,90.1527727 L521.912812,89.7951165 C520.875655,88.6223806 519.078169,88.5056717 517.898806,89.5334627 C516.717547,90.5612538 516.59999,92.34577 517.637146,93.5185059 L517.63525,93.5185059 M526.518212,104.353942 L526.801862,104.721591 C527.755612,105.959596 529.546988,106.199694 530.803426,105.25806 C532.05796,104.316426 532.301633,102.551332 531.347882,101.315204 L531.054714,100.938175 C530.097156,99.703922 528.303876,99.4675757 527.051246,100.411085 C525.798615,101.354595 525.55875,103.119689 526.518212,104.353942 M535.406642,116.185088 L535.664851,116.570369 C536.535111,117.864617 538.313884,118.221844 539.637444,117.370858 C540.961004,116.519871 541.328235,114.780492 540.457975,113.486245 L540.192115,113.091612 C539.31803,111.799235 537.539257,111.443878 536.21761,112.298605 C534.894049,113.151461 534.532557,114.89271 535.406642,116.185088 M542.302773,129.005932 L542.535273,129.404989 C543.315397,130.753207 545.071636,131.230585 546.458949,130.473494 C547.846263,129.716403 548.340085,128.012017 547.559961,126.665664 L547.323619,126.255418 C546.539652,124.910929 544.781491,124.435416 543.396099,125.194372 C542.008786,125.955192 541.520728,127.661443 542.302773,129.005932 M549.209363,141.817654 L549.412125,142.230617 C550.09379,143.625761 551.820161,144.222883 553.268458,143.566235 C554.714825,142.907727 555.334696,141.244715 554.653031,139.851432 L554.444476,139.427308 C553.757017,138.035884 552.030647,137.442483 550.586211,138.102851 C549.139845,138.763219 548.523835,140.426231 549.211294,141.817654 L549.209363,141.817654 M555.129446,154.625967 L555.300288,155.051056 C555.878824,156.485965 557.565895,157.198778 559.066592,156.645605 C560.565349,156.092432 561.312785,154.47932 560.73425,153.044412 L560.557583,152.610041 C559.973223,151.175133 558.286152,150.466032 556.787396,151.022918 C555.28864,151.579803 554.545086,153.192915 555.129446,154.625967 M560.059585,168.427774 L560.200134,168.863138 C560.66863,170.330405 562.306412,171.158522 563.852448,170.712042 C565.400436,170.265563 566.273009,168.713076 565.802561,167.243956 L565.658108,166.797477 C565.183756,165.33021 563.545974,164.505799 561.999938,164.955983 C560.453902,165.406167 559.585233,166.960507 560.059585,168.427774 M563.99181,183.224924 L564.080167,183.66885 C564.377964,185.163403 565.691869,186.101197 567.013954,185.764553 C568.337676,185.427909 569.167252,183.942605 568.869456,182.448052 L568.779462,181.993027 C568.476757,180.498475 567.161216,179.56253 565.840767,179.902873 C564.518681,180.243217 563.690741,181.730371 563.99181,183.224924 M566.95809,197.01804 L567.018978,197.467018 C567.218098,198.982084 568.473709,200.02785 569.82312,199.802438 C571.170885,199.577025 572.102308,198.167274 571.903188,196.654055 L571.840654,196.192144 C571.636597,194.678925 570.379341,193.636855 569.029929,193.864115 C567.68381,194.093222 566.754032,195.504821 566.95809,197.01804 M567.938963,211.812939 L567.96877,212.265449 C568.069783,213.791053 569.260407,214.938027 570.628217,214.825361 C571.996027,214.712696 573.022713,213.384718 572.923356,211.859114 L572.891893,211.393675 C572.787568,209.86807 571.595288,208.724791 570.227478,208.84115 C568.858012,208.955663 567.832983,210.287335 567.937307,211.812939 L567.938963,211.812939 M568.93,225.60962 L568.93,226.063773 C568.93,227.592386 570.048339,228.833 571.43,228.833 C572.810002,228.831154 573.93,227.592386 573.93,226.061927 L573.93,225.596697 C573.926667,224.066237 572.803335,222.829316 571.423337,222.833 C570.043339,222.836701 568.926674,224.07916 568.93,225.60962 M568.93,226.603079 L568.93,227.057372 C568.926674,228.586456 570.043339,229.829298 571.423337,229.833 C572.803335,229.836685 573.926667,228.599383 573.93,227.070299 L573.93,226.603079 C573.93,225.073996 572.810002,223.833 571.43,223.833 C570.050006,223.833 568.93,225.073996 568.93,226.603079" id="Fill-4" fill="#FFFFFE"></path>
        <path d="M368.498205,476 C168.848444,476 7,456.411765 7,432.24841 C7,417.902424 64.0681767,405.166137 152.218593,397.187401 L152.218593,430.105723 C152.218593,436.088434 157.088712,440.940779 163.093338,440.940779 L547.346291,440.940779 C553.349122,440.940779 558.221036,436.088434 558.221036,430.105723 L558.221036,395 C661.310315,402.706876 730,416.507353 730,432.24841 C730,456.411765 568.153351,476 368.498205,476" id="Fill-5" fill="#C86345"></path>
        <path d="M558,430.118633 C558,436.126915 553.128115,441 547.125321,441 L162.874679,441 C156.87009,441 152,436.126915 152,430.118633 L152,153.881367 C152,147.871289 156.87009,143 162.874679,143 L547.125321,143 C553.128115,143 558,147.871289 558,153.881367 L558,430.118633" id="Fill-6" fill="#272547"></path>
        <polygon id="Fill-7" fill="#00A7CB" points="161 418 549 418 549 160 161 160"></polygon>
        <path d="M389,429.501651 C389,430.883752 387.781639,432 386.28115,432 L323.717053,432 C322.214767,432 321,430.883752 321,429.501651 C321,428.119551 322.214767,427 323.717053,427 L386.28115,427 C387.781639,427 389,428.119551 389,429.501651" id="Fill-8" fill="#ABDBEB"></path>
        <path d="M376,152.500874 C376,153.884225 374.837151,155 373.412074,155 L336.584309,155 C335.157423,155 334,153.884225 334,152.500874 C334,151.117524 335.157423,150 336.584309,150 L373.412074,150 C374.837151,150 376,151.117524 376,152.500874" id="Fill-9" fill="#ABDBEB"></path>
        <polyline id="Fill-10" fill="#00B4D3" points="274.029073 418 222 418 498.011496 160 545 160 274.029073 418"></polyline>
        <path d="M197.63915,418 L161,418 L161,388.010546 C161.235442,388.010546 414.914737,160 414.914737,160 L479,160 L197.63915,418" id="Fill-11" fill="#00B4D3"></path>
        <path d="M111.197127,432.08079 C111.197127,433.140598 110.346084,434 109.296584,434 L34.7016278,434 C33.6521278,434 32.8010852,433.140598 32.8010852,432.08079 L29,340.921016 C29,339.859402 29.8510426,339 30.9005426,339 L113.095882,339 C114.147169,339 115,339.859402 115,340.921016 L111.197127,432.08079" id="Fill-12" fill="#2C3981"></path>
        <path d="M23.5361709,260.897544 C23.5361709,260.897544 15.7160475,269.57983 0,251.657164 C0,251.657164 20.4499925,247.588706 24,259.697731 L23.5361709,260.897544" id="Fill-13" fill="#ABDBEB"></path>
        <path d="M24.5872876,260 C24.5872876,260 36.0014118,260.127203 33.6913262,237 C33.6913262,237 17.1454485,248.986779 23.4207386,259.538819 L24.5872876,260" id="Fill-14" fill="#ABDBEB"></path>
        <path d="M70.9638883,204.620609 C70.9638883,204.620609 60.1040515,209.137585 53,187 C53,187 73.6458054,191.633202 71.8945741,203.748912 L70.9638883,204.620609" id="Fill-15" fill="#00A7CB"></path>
        <path d="M72.9505114,202.571495 C72.9505114,202.571495 83.4466131,207.204843 91,186 C91,186 70.6882657,189.961232 72.0671583,201.705401 L72.9505114,202.571495" id="Fill-16" fill="#00A7CB"></path>
        <path d="M70.9118732,223.578384 C70.9118732,223.578384 59.4782659,228.597633 52,204 C52,204 73.7298495,209.148042 71.8893531,222.610596 L70.9118732,223.578384" id="Fill-17" fill="#00A7CB"></path>
        <path d="M73.0017289,221.521443 C73.0017289,221.521443 84.0477726,226.698077 92,203 C92,203 70.6205033,207.427408 72.0705631,220.552277 L73.0017289,221.521443" id="Fill-18" fill="#00A7CB"></path>
        <path d="M70.800632,245.536116 C70.800632,245.536116 58.2259016,251.057868 50,224 C50,224 73.9059053,229.662679 71.8778979,244.470932 L70.800632,245.536116" id="Fill-19" fill="#00A7CB"></path>
        <path d="M73.1014346,243.470747 C73.1014346,243.470747 85.2530789,249.193906 94,223 C94,223 70.4798332,227.893819 72.0778964,242.4019 L73.1014346,243.470747" id="Fill-20" fill="#00A7CB"></path>
        <path d="M70.801216,267.556637 C70.801216,267.556637 58.2245335,272.830476 50,247 C50,247 73.9052559,252.404595 71.8779806,266.540225 L70.801216,267.556637" id="Fill-21" fill="#00A7CB"></path>
        <path d="M73.1010734,266.47108 C73.1010734,266.47108 85.2537454,272.192566 94,246 C94,246 70.4796667,250.892156 72.0779133,265.400976 L73.1010734,266.47108" id="Fill-22" fill="#00A7CB"></path>
        <path d="M68.1827203,284.683847 C68.1827203,284.683847 59.6083956,288.447959 54,270 C54,270 70.2980627,273.86116 68.916929,283.957714 L68.1827203,284.683847" id="Fill-23" fill="#00A7CB"></path>
        <path d="M70.612055,284.29397 C70.612055,284.29397 78.5206311,289.429403 87,272 C87,272 70.2252225,273.190471 70,283.45261 L70.612055,284.29397" id="Fill-24" fill="#00A7CB"></path>
        <path d="M69.5033243,298.402557 C69.5033243,298.402557 76.0172371,302.748043 83,288 C83,288 69.186161,289.008613 69,297.690595 L69.5033243,298.402557" id="Fill-25" fill="#00A7CB"></path>
        <path d="M68.494952,298.402557 C68.494952,298.402557 61.9827629,302.748043 55,288 C55,288 68.8155627,289.008613 69,297.690595 L68.494952,298.402557" id="Fill-26" fill="#00A7CB"></path>
        <path d="M31.4769634,279.547273 C31.4769634,279.547273 22.6789921,289.676247 5,268.766782 C5,268.766782 28.0065445,264.019749 32,278.148264 L31.4769634,279.547273" id="Fill-27" fill="#ABDBEB"></path>
        <path d="M32.0170917,278 C32.0170917,278 45.3312076,278.146202 42.6410697,251 C42.6410697,251 23.3374885,265.069524 30.6567481,277.456626 L32.0170917,278" id="Fill-28" fill="#ABDBEB"></path>
        <path d="M38.423955,299.196667 C38.423955,299.196667 28.6452406,310.772959 9,286.876926 C9,286.876926 34.5655076,281.450126 39,297.596554 L38.423955,299.196667" id="Fill-29" fill="#ABDBEB"></path>
        <path d="M39.4484264,297 C39.4484264,297 54.6678475,297.161446 51.5886889,267 C51.5886889,267 29.5275098,282.633288 37.8941495,296.397184 L39.4484264,297" id="Fill-30" fill="#ABDBEB"></path>
        <path d="M45.2852404,321.802337 C45.2852404,321.802337 34.3647988,332.343497 16,307.253456 C16,307.253456 42.6668677,304.068451 46,320.279478 L45.2852404,321.802337" id="Fill-31" fill="#ABDBEB"></path>
        <path d="M45.8202327,319.991177 C45.8202327,319.991177 60.5920809,321.330668 59.9815852,291 C59.9815852,291 37.31626,304.892279 44.3557591,319.271156 L45.8202327,319.991177" id="Fill-32" fill="#ABDBEB"></path>
        <path d="M113.522098,265.201801 C113.522098,265.201801 121.822533,273.229235 137,255.362511 C137,255.362511 116.088619,252.284454 113,264.066767 L113.522098,265.201801" id="Fill-33" fill="#272547"></path>
        <path d="M112.55196,263.998493 C112.55196,263.998493 100.729939,264.613464 102.112449,241 C102.112449,241 119.785811,252.483063 113.739854,263.478824 L112.55196,263.998493" id="Fill-34" fill="#272547"></path>
        <path d="M106.586489,283.902343 C106.586489,283.902343 115.921881,293.26712 133,272.422767 C133,272.422767 109.474093,268.832404 106,282.577708 L106.586489,283.902343" id="Fill-35" fill="#272547"></path>
        <path d="M105.175238,282.99823 C105.175238,282.99823 91.5332783,283.720216 93.1299721,256 C93.1299721,256 113.520084,269.478907 106.546994,282.390145 L105.175238,282.99823" id="Fill-36" fill="#272547"></path>
        <path d="M99.6506625,303.602578 C99.6506625,303.602578 110.025611,314.305228 129,290.483845 C129,290.483845 102.859409,286.377775 99,302.088669 L99.6506625,303.602578" id="Fill-37" fill="#272547"></path>
        <path d="M98.7990131,301.998103 C98.7990131,301.998103 83.336422,302.772963 85.1475245,273 C85.1475245,273 108.254501,287.476988 100.354057,301.343268 L98.7990131,301.998103" id="Fill-38" fill="#272547"></path>
        <path d="M94.7664413,326.160222 C94.7664413,326.160222 105.936878,335.766689 123,311.076758 C123,311.076758 96.6255071,309.138798 94,324.738224 L94.7664413,326.160222" id="Fill-39" fill="#272547"></path>
        <path d="M93.4295383,324.974657 C93.4295383,324.974657 78.6617797,326.908095 78,297 C78,297 101.327736,309.746174 94.8699883,324.202698 L93.4295383,324.974657" id="Fill-40" fill="#272547"></path>
        <path d="M87.8002233,359 C87.8002233,358.998211 87.8634841,358.323937 88.0315773,356.991484 C89.2100367,347.667892 95.4746691,306.682003 120,250.711834 L118.342566,250 C90.216788,314.184875 86.0072298,358.762126 86,358.833667 L87.8002233,359" id="Fill-41" fill="#2C3981"></path>
        <path d="M117.506434,250.416068 C117.506434,250.416068 109.61914,241.929931 129.939551,229 C129.939551,229 131.50727,249.018801 118.675199,251 L117.506434,250.416068" id="Fill-42" fill="#272547"></path>
        <path d="M64.8765293,356 C64.8765293,355.985594 72.9981178,266.91201 73,214.829219 C72.9981178,203.873519 72.6405044,194.558294 71.7634105,188 L69.8981743,188.228694 C70.7564465,194.641128 71.1178242,203.916737 71.115942,214.829219 C71.1178242,240.792283 69.0888387,276.056166 67.057971,304.817579 C66.0434783,319.200086 65.0289855,331.956525 64.2685865,341.118688 C63.888387,345.69977 63.5702993,349.380481 63.3500847,351.917723 C63.1261058,354.453165 63.0018822,355.839734 63,355.843336 L64.8765293,356" id="Fill-43" fill="#2C3981"></path>
        <path d="M71.2549774,188.860595 C71.2549774,188.860595 81.2712128,183.577495 68.5425019,164 C68.5425019,164 59.6605427,182.537318 70.0245762,189 L71.2549774,188.860595" id="Fill-44" fill="#00A7CB"></path>
        <path d="M54.998172,353.759521 C54.9890321,353.687737 48.8195922,309.174078 17.643356,246 L16,246.782453 C31.5341926,278.261815 40.834966,305.084148 46.2494493,324.028116 C48.9548629,333.5001 50.691446,341.001595 51.7498477,346.130608 C52.2799625,348.696909 52.640075,350.667398 52.8667448,351.995414 C52.9800797,352.659422 53.0605109,353.163709 53.1116944,353.499302 C53.1647059,353.834895 53.1866417,354 53.1866417,354 L55,353.759521" id="Fill-45" fill="#2C3981"></path>
        <path d="M677.197127,440.08079 C677.197127,441.140598 676.346084,442 675.296584,442 L600.701628,442 C599.652128,442 598.801085,441.140598 598.801085,440.08079 L595,348.91921 C595,347.859402 595.851043,347 596.902331,347 L679.095882,347 C680.147169,347 681,347.859402 681,348.91921 L677.197127,440.08079" id="Fill-46" fill="#2C3981"></path>
        <path d="M589.536171,269.072749 C589.536171,269.072749 581.716048,277.031511 566,260.6024 C566,260.6024 586.449992,256.87298 590,267.97292 L589.536171,269.072749" id="Fill-47" fill="#ABDBEB"></path>
        <path d="M590.589049,268 C590.589049,268 602.001363,268.127213 599.691285,245 C599.691285,245 583.145465,256.9877 589.420734,267.538784 L590.589049,268" id="Fill-48" fill="#ABDBEB"></path>
        <path d="M637.018421,212.620688 C637.018421,212.620688 626.730154,217.137233 620,195 C620,195 639.559184,199.634521 637.900123,211.747313 L637.018421,212.620688" id="Fill-49" fill="#00A7CB"></path>
        <path d="M638.950511,211.546722 C638.950511,211.546722 649.446613,216.450437 657,194 C657,194 636.688266,198.193919 638.067158,210.627952 L638.950511,211.546722" id="Fill-50" fill="#00A7CB"></path>
        <path d="M636.911873,231.599158 C636.911873,231.599158 625.478266,236.369114 618,213 C618,213 639.72985,217.89056 637.889353,230.679775 L636.911873,231.599158" id="Fill-51" fill="#00A7CB"></path>
        <path d="M639.001729,230.521443 C639.001729,230.521443 650.047773,235.698077 658,212 C658,212 636.620503,216.427408 638.070563,229.554065 L639.001729,230.521443" id="Fill-52" fill="#00A7CB"></path>
        <path d="M636.800525,253.536116 C636.800525,253.536116 624.224767,259.057868 616,232 C616,232 639.906052,237.664509 637.877879,252.470932 L636.800525,253.536116" id="Fill-53" fill="#00A7CB"></path>
        <path d="M639.101435,251.470411 C639.101435,251.470411 651.253079,257.195263 660,231 C660,231 636.479833,235.893738 638.077896,250.401581 L639.101435,251.470411" id="Fill-54" fill="#00A7CB"></path>
        <path d="M636.801216,276.535525 C636.801216,276.535525 624.224533,282.060498 616,255 C616,255 639.905256,260.663783 637.877981,275.472538 L636.801216,276.535525" id="Fill-55" fill="#00A7CB"></path>
        <path d="M639.101073,274.47065 C639.101073,274.47065 651.253745,280.194299 660,254 C660,254 636.479667,258.89248 638.077913,273.402259 L639.101073,274.47065" id="Fill-56" fill="#00A7CB"></path>
        <path d="M634.18272,292.683466 C634.18272,292.683466 625.608396,296.449657 620,278 C620,278 636.298063,281.859783 634.916929,291.957265 L634.18272,292.683466" id="Fill-57" fill="#00A7CB"></path>
        <path d="M636.610397,292.294577 C636.610397,292.294577 644.519773,297.42779 653,280 C653,280 636.223526,281.192106 636,291.453296 L636.610397,292.294577" id="Fill-58" fill="#00A7CB"></path>
        <path d="M635.503262,307.402557 C635.503262,307.402557 642.016373,311.748043 649,297 C649,297 635.187862,298.008613 635,306.690595 L635.503262,307.402557" id="Fill-59" fill="#00A7CB"></path>
        <path d="M634.494952,307.402557 C634.494952,307.402557 627.982763,311.748043 621,297 C621,297 634.815563,298.008613 635,306.690595 L634.494952,307.402557" id="Fill-60" fill="#00A7CB"></path>
        <path d="M597.476963,287.546789 C597.476963,287.546789 588.678992,297.676852 571,276.766985 C571,276.766985 594.006545,272.019441 598,286.14763 L597.476963,287.546789" id="Fill-61" fill="#ABDBEB"></path>
        <path d="M599.017478,286 C599.017478,286 612.332758,286.146202 609.640588,259 C609.640588,259 590.337116,273.069524 597.657015,285.458431 L599.017478,286" id="Fill-62" fill="#ABDBEB"></path>
        <path d="M604.423955,307.371247 C604.423955,307.371247 594.645241,318.225689 575,295.821598 C575,295.821598 600.565508,290.735789 605,305.871155 L604.423955,307.371247" id="Fill-63" fill="#ABDBEB"></path>
        <path d="M606.2329,305 C606.2329,305 620.501107,305.163239 617.614396,275 C617.614396,275 596.93204,290.633288 604.775765,304.398977 L606.2329,305" id="Fill-64" fill="#ABDBEB"></path>
        <path d="M611.28524,329.801943 C611.28524,329.801943 600.366608,340.344145 582,315.253481 C582,315.253481 608.666868,312.068161 612,328.28079 L611.28524,329.801943" id="Fill-65" fill="#ABDBEB"></path>
        <path d="M612.81988,327.991177 C612.81988,327.991177 627.590342,329.330668 626.981693,299 C626.981693,299 604.316705,312.894075 611.355544,327.271156 L612.81988,327.991177" id="Fill-66" fill="#ABDBEB"></path>
        <path d="M679.522058,273.202388 C679.522058,273.202388 687.821859,281.228215 703,263.362923 C703,263.362923 682.088383,260.283063 679,272.067334 L679.522058,273.202388" id="Fill-67" fill="#272547"></path>
        <path d="M678.55196,271.998558 C678.55196,271.998558 666.729939,272.586837 668.112449,250 C668.112449,250 685.785811,260.982938 679.739854,271.503165 L678.55196,271.998558" id="Fill-68" fill="#272547"></path>
        <path d="M672.586489,291.902343 C672.586489,291.902343 681.921881,301.26712 699,280.422767 C699,280.422767 675.474093,276.832404 672,290.577708 L672.586489,291.902343" id="Fill-69" fill="#272547"></path>
        <path d="M671.175238,290.99823 C671.175238,290.99823 657.533278,291.720216 659.129972,264 C659.129972,264 679.520084,277.478907 672.546994,290.390145 L671.175238,290.99823" id="Fill-70" fill="#272547"></path>
        <path d="M665.650663,311.602578 C665.650663,311.602578 676.025611,322.305228 695,298.483845 C695,298.483845 668.859409,294.377775 665,310.088669 L665.650663,311.602578" id="Fill-71" fill="#272547"></path>
        <path d="M664.987306,309.998116 C664.987306,309.998116 650.43428,310.771164 652.138847,281 C652.138847,281 673.886589,295.477879 666.450877,309.34332 L664.987306,309.998116" id="Fill-72" fill="#272547"></path>
        <path d="M660.766441,335.051678 C660.766441,335.051678 671.936878,345.224093 689,319.081474 C689,319.081474 662.625507,317.027464 660,333.545905 L660.766441,335.051678" id="Fill-73" fill="#272547"></path>
        <path d="M659.429538,332.974657 C659.429538,332.974657 644.66178,334.908095 644,305 C644,305 667.327736,317.747945 660.869988,332.202698 L659.429538,332.974657" id="Fill-74" fill="#272547"></path>
        <path d="M653.800223,367 C653.800223,366.998211 653.863484,366.323937 654.031577,364.991484 C655.210037,355.667892 661.474669,314.682003 686,258.711834 L684.342566,258 C656.216788,322.184875 652.00723,366.762126 652,366.833667 L653.800223,367" id="Fill-75" fill="#2C3981"></path>
        <path d="M683.506754,259.387757 C683.506754,259.387757 675.6186,250.518404 695.939356,237 C695.939356,237 697.509119,257.92891 684.675647,260 L683.506754,259.387757" id="Fill-76" fill="#272547"></path>
        <path d="M631.688876,364 C631.688876,363.98747 638.998306,275.441347 639,223.669807 C638.998306,212.779203 638.676454,203.517536 637.887069,197 L636.208357,197.227335 C636.980802,203.599878 637.306042,212.820374 637.304348,223.669807 C637.306042,249.476815 635.479955,284.53296 633.652174,313.123481 C632.73913,327.418741 631.826087,340.101175 631.141728,349.207109 C630.799548,353.760971 630.513269,357.419813 630.315076,359.941979 C630.115189,362.462356 630.001694,363.840686 630,363.844267 L631.688876,364" id="Fill-77" fill="#2C3981"></path>
        <path d="M637.254977,197.858808 C637.254977,197.858808 647.271213,192.575708 634.542502,173 C634.542502,173 625.660543,191.53553 636.024576,198 L637.254977,197.858808" id="Fill-78" fill="#00A7CB"></path>
        <path d="M620.998219,361.759521 C620.989313,361.687737 614.978064,317.174078 584.601219,254 L583,254.782453 C598.13588,286.261815 607.198172,313.084148 612.472041,332.028116 C615.109866,341.5001 616.801922,349.001595 617.833185,354.132403 C618.349707,356.696909 618.700586,358.669192 618.921444,359.997208 C619.031873,360.661216 619.110241,361.163709 619.160112,361.501097 C619.211765,361.83669 619.233138,362 619.233138,362 L621,361.759521" id="Fill-79" fill="#2C3981"></path>
        <path d="M160,69.5017888 C160,99.0467251 136.048514,123 106.5,123 C76.9532749,123 53,99.0467251 53,69.5017888 C53,39.9532749 76.9532749,16 106.5,16 C136.048514,16 160,39.9532749 160,69.5017888" id="Fill-80" fill="#FFFFFE"></path>
        <polygon id="Fill-81" fill="#2C3981" points="129 102 138 102 138 44 129 44"></polygon>
        <polygon id="Fill-82" fill="#FACD4D" points="83 102 92 102 92 68 83 68"></polygon>
        <polygon id="Fill-83" fill="#00A7CB" points="114 102 123 102 123 52 114 52"></polygon>
        <polygon id="Fill-84" fill="#E67B5C" points="99 102 108 102 108 59 99 59"></polygon>
        <polygon id="Fill-85" fill="#ABDBEB" points="68 102 77 102 77 74 68 74"></polygon>
        <path d="M70.216608,67 C69.7887995,67 69.3735736,66.7684655 69.1524793,66.3637358 C68.8271292,65.7694031 69.0392359,65.0164601 69.6288207,64.688301 L124.19957,34.1530905 C124.78556,33.8249313 125.526136,34.041881 125.847891,34.6362137 C126.173242,35.2323695 125.959337,35.9834894 125.37155,36.3098254 L70.8025978,66.8468591 C70.6156563,66.9507761 70.4143347,67 70.216608,67" id="Fill-86" fill="#2C3981"></path>
        <polyline id="Fill-87" fill="#2C3981" points="123.40284 43 127 33.9830339 117 33 123.40284 43"></polyline>
        <path d="M191,185.5 C191,215.599872 166.376018,240 136,240 C105.623982,240 81,215.599872 81,185.5 C81,155.398339 105.623982,131 136,131 C166.376018,131 191,155.398339 191,185.5" id="Fill-88" fill="#FFFFFE"></path>
        <polygon id="Fill-89" fill="#E67B5C" points="111 220 119 220 119 197 111 197"></polygon>
        <polygon id="Fill-90" fill="#00A7CB" points="109 200 121 200 121 193 109 193"></polygon>
        <path d="M161,166 L161,193 C168.773956,192.768133 175,186.814507 175,179.5 C175,172.187277 168.773956,166.23365 161,166" id="Fill-91" fill="#272547"></path>
        <path d="M107,169 L107,190 C101.446266,189.818535 97,185.189313 97,179.500926 C97,173.812539 101.446266,169.183317 107,169" id="Fill-92" fill="#272547"></path>
        <path d="M156,155 C133.627706,165.335422 122,164.671499 122,164.671499 L122,194.144673 C122,194.144673 140.445578,193.700273 156,204 L156,155" id="Fill-93" fill="#00A7CB"></path>
        <polygon id="Fill-94" fill="#272547" points="103 194 124 194 124 164 103 164"></polygon>
        <polygon id="Fill-95" fill="#E67B5C" points="154 205 164 205 164 152 154 152"></polygon>
        <path d="M629,194.5 C629,224.599872 604.377823,249 574,249 C543.623982,249 519,224.599872 519,194.5 C519,164.400128 543.623982,140 574,140 C604.377823,140 629,164.400128 629,194.5" id="Fill-96" fill="#FFFFFE"></path>
        <path d="M574,193.984603 C574,194.687145 548,171.114718 548,171.114718 C554.429358,164.286218 563.697248,160 574,160 L574,193.984603" id="Fill-97" fill="#ABDBEB"></path>
        <path d="M608,194 C608,194 592.77747,194 574,194 L574,160 C592.77747,160 608,175.221549 608,194" id="Fill-98" fill="#E67B5C"></path>
        <path d="M540,194 C540,194 555.221549,194 574,194 L574,229 C555.221549,229 540,213.327922 540,194" id="Fill-99" fill="#00A7CB"></path>
        <path d="M574,194 L540,194 C540,185.141494 543.352788,177.069816 548.849655,171 L574,194" id="Fill-100" fill="#2C3981"></path>
        <path d="M574,194.015851 C574,193.292608 599,217.559608 599,217.559608 C592.817925,224.589312 583.908257,229 574,229 L574,194.015851" id="Fill-101" fill="#FACD4D"></path>
        <path d="M574,194 L608,194 C608,202.856722 604.645613,210.926615 599.149032,217 L574,194" id="Fill-102" fill="#007CB6"></path>
        <path d="M406,5.00089967 C406,38.1394041 379.138008,65 345.998201,65 C312.861992,65 286,38.1394041 286,5.00089967 C286,-28.1358054 312.861992,-55 345.998201,-55 C379.138008,-55 406,-28.1358054 406,5.00089967" id="Fill-103" fill="#FFFFFE"></path>
        <path d="M345.429104,79.833 C336.868855,79.833 329.93,72.8923539 329.93,64.3338958 C329.93,55.7736461 336.868855,48.833 345.429104,48.833 C353.989354,48.833 360.93,55.7736461 360.93,64.3338958 C360.93,72.8923539 353.989354,79.833 345.429104,79.833 Z M383.93,53.5590976 L370.336279,53.5590976 L379.64206,43.6505148 L363.939339,28.896142 L356.202755,37.1314744 L356.202755,25.833 L334.653658,25.833 L334.653658,39.4252441 L324.748893,30.1192467 L309.994864,45.8223327 L318.228211,53.5590976 L306.93,53.5590976 L306.93,75.105109 L320.523721,75.105109 L311.214353,85.0154852 L326.920661,99.769858 L334.653658,91.536319 L334.653658,102.833 L356.202755,102.833 L356.202755,89.2407559 L366.111107,98.5467533 L380.865136,82.8436673 L372.631789,75.105109 L383.93,75.105109 L383.93,53.5590976 L383.93,53.5590976 Z" id="Fill-104" fill="#00A7CB"></path>
        <path d="M626,59.5017888 C626,89.0467251 601.821461,113 571.999097,113 C542.176733,113 518,89.0467251 518,59.5017888 C518,29.9532749 542.176733,6 571.999097,6 C601.821461,6 626,29.9532749 626,59.5017888" id="Fill-105" fill="#FFFFFE"></path>
        <polyline id="Fill-106" fill="#272547" points="585.053895 91 537 59.917515 585.057453 29 587.992884 33.6388825 547.122789 59.9300671 588 86.3718764 585.053895 91"></polyline>
        <path d="M575,30.5 C575,36.8512111 580.374859,42 587.000903,42 C593.630557,42 599,36.8512111 599,30.5 C599,24.1487889 593.630557,19 587.000903,19 C580.374859,19 575,24.1487889 575,30.5" id="Fill-107" fill="#E67B5C"></path>
        <path d="M530,59 C530,66.7313433 536.26906,73 544.000901,73 C551.732741,73 558,66.7313433 558,59 C558,51.2668554 551.732741,45 544.000901,45 C536.26906,45 530,51.2668554 530,59" id="Fill-108" fill="#E67B5C"></path>
        <path d="M575,88.9990973 C575,95.6251411 580.374859,101 587.000903,101 C593.630557,101 599,95.6251411 599,88.9990973 C599,82.371248 593.630557,77 587.000903,77 C580.374859,77 575,82.371248 575,88.9990973" id="Fill-109" fill="#E67B5C"></path>
        <path d="M496.888147,308 C496.389011,309.634604 495.814735,311.240277 495.143853,312.806169 C492.460323,319.07878 488.798199,324.532282 484.159269,329.164864 C479.516762,333.799255 474.151491,337.444567 468.058089,340.097181 C461.961108,342.755221 455.506324,344.082432 448.686579,344.082432 C441.865046,344.082432 435.408472,342.755221 429.31507,340.097181 C423.219878,337.444567 417.84924,333.799255 413.213889,329.164864 C411.949052,327.90094 410.787978,326.55203 409.673418,325.16334 C405.809135,328.240879 401.574524,330.806701 397.740654,333.942102 C397.491981,334.14462 397.248674,334.348945 397,334.553271 C398.499199,336.435597 400.096794,338.231129 401.808886,339.92902 C407.78958,345.861691 414.806117,350.523205 422.856707,353.913561 C430.907298,357.303918 439.517851,359 448.686579,359 C457.853518,359 466.464072,357.303918 474.514662,353.913561 C482.565253,350.523205 489.581789,345.861691 495.564272,339.92902 C501.544967,333.996348 506.269769,326.960681 509.73689,318.823826 C510.609931,316.767913 511.350586,314.661372 512,312.518667 C506.98001,310.934692 502.01369,309.137352 496.888147,308" id="Fill-110" fill="#FACD4D"></path>
        <path d="M509.674017,266.536417 C506.12276,258.503565 501.332441,251.479314 495.301257,245.467261 C489.268269,239.458802 482.196416,234.708848 474.080289,231.22459 C465.964161,227.743927 457.34303,226 448.211485,226 C439.079939,226 430.457005,227.743927 422.340877,231.22459 L422,231.379206 L428.253025,244.715754 C433.793635,242.667988 441.79253,240.83237 448.211485,240.83237 C455.651268,240.83237 462.499476,242.209533 468.754305,244.963859 C475.010938,247.718185 480.392832,251.423581 484.901792,256.085439 C489.407145,260.749096 492.906097,266.198419 495.386025,272.435205 C497.864149,278.671992 499.105015,285.273745 499.105015,292.238666 C499.105015,296.893334 497.395218,305.13294 496.296835,309.354322 L511.486619,314 C513.815045,307.193291 515,299.944307 515,292.238666 C515,283.137884 513.225273,274.571067 509.674017,266.536417" id="Fill-111" fill="#ABDBEB"></path>
        <path d="M399.066868,337 C403.177005,333.664914 407.392436,330.466468 411.738578,327.449608 C407.731921,323.186811 404.513162,318.278571 402.084115,312.719495 C399.360968,306.484413 397.999395,299.713559 397.999395,292.408732 C397.999395,285.443706 399.246596,278.841854 401.742814,272.604973 C404.237216,266.368093 407.757337,260.918688 412.295915,256.254961 C416.834493,251.593032 422.25174,247.887581 428.54947,245.133213 C429.028744,244.92286 429.513464,244.73588 430,244.545303 C427.883207,240.104515 425.991528,235.568439 424.185174,231 C423.85295,231.133044 423.518911,231.253502 423.188502,231.393738 C415.019062,234.878049 407.898941,239.628074 401.828139,245.636623 C395.759153,251.648767 390.937368,258.673123 387.364599,266.706096 C383.790015,274.740866 382,283.307812 382,292.408732 C382,301.847654 383.759153,310.612368 387.279274,318.702873 C390.276551,325.601377 394.212405,331.696224 399.066868,337" id="Fill-112" fill="#272547"></path>
        <polyline id="Fill-113" fill="#FACD4D" points="318.783508 317 303 317 303 354 371 354 371 339.446233 318.783508 339.446233 318.783508 317"></polyline>
        <polyline id="Fill-114" fill="#ABDBEB" points="318.904943 262 303 262 303 318 318.904943 318 318.904943 291.014688 370 291.014688 370 276.536079 318.904943 276.536079 318.904943 262"></polyline>
        <polyline id="Fill-115" fill="#272547" points="303 227 303 263 318.783508 263 318.783508 241.155272 371 241.155272 371 227 303 227"></polyline>
        <path d="M254.333739,336.529298 L254.295743,336.548599 C251.411672,337.866325 248.274294,338.524311 244.879992,338.524311 C241.489309,338.524311 238.265083,337.947038 235.212744,336.796001 C232.156787,335.644965 229.5025,334.028951 227.239029,331.944452 C224.975558,329.861708 223.224127,327.366625 221.979308,324.459205 C220.736298,321.553539 220.115698,318.402226 220.115698,315 L204,318.289929 C204.678499,323.223946 206.147674,327.831602 208.411145,332.107633 C210.670998,336.383663 213.52612,340.061366 216.978321,343.130212 C220.425094,346.200813 224.411047,348.613428 228.934371,350.366302 C233.455885,352.119176 238.321172,353 243.522995,353 C249.045069,353 254.201658,352.106894 259,350.348756 C258.060958,345.5516 255.944042,341.121162 254.333739,336.529298" id="Fill-116" fill="#FACD4D"></path>
        <path d="M218.331795,274.674832 C220.85359,277.218286 223.798974,279.425266 227.164359,281.288535 C230.529744,283.155423 234.00641,284.8794 237.596154,286.462275 L246.346154,290.192432 C248.365385,291.040853 250.364872,291.996005 252.351795,293 C254.819744,288.376197 257.641282,283.951383 260.096667,279.323962 C257.689744,278.13364 255.191282,277.004824 252.574359,275.948368 L243.486923,272.384639 C241.469487,271.595915 239.419744,270.662471 237.344872,269.587925 C235.26641,268.513379 233.390769,267.241652 231.707179,265.770935 C230.027179,264.303837 228.621795,262.608804 227.5,260.685837 C226.378205,258.76287 225.818205,256.5577 225.818205,254.070325 C225.818205,251.244667 226.435641,248.72654 227.668718,246.523178 C228.90359,244.319816 230.529744,242.425793 232.548974,240.842919 C234.57,239.258235 236.838718,238.042587 239.364103,237.195975 C241.887692,236.347554 244.44,235.922439 247.019231,235.922439 C251.843846,235.922439 255.85359,236.940906 259.050256,238.976031 C262.250513,241.012964 265.025385,244.008668 267.380256,247.964951 L280,240.332781 C276.523333,234.117057 271.980513,229.33768 266.371538,226.001884 C260.762564,222.667898 254.423077,221 247.356667,221 C242.532051,221 237.877949,221.763398 233.390769,223.288385 C228.90359,224.81699 224.920769,226.993216 221.444103,229.817065 C217.965641,232.646341 215.188974,236.092485 213.114103,240.162735 C211.037436,244.234793 210,248.869451 210,254.070325 C210,258.477048 210.757436,262.379061 212.274103,265.770935 C213.788974,269.16281 215.808205,272.131379 218.331795,274.674832" id="Fill-117" fill="#272547"></path>
        <path d="M281.677191,300.383156 C280.126291,296.398534 277.969903,292.889983 275.204485,289.857502 C272.437297,286.826818 269.147831,284.216513 265.327235,282.024792 C262.167011,280.21213 258.785482,278.543188 255.209206,277 C252.700502,281.539738 250.16524,286.066901 248,290.727005 C250.255533,291.718669 252.49159,292.789379 254.706403,293.984047 C257.3054,295.388905 259.629979,297.014731 261.676601,298.868712 C263.723222,300.7191 265.355562,302.910822 266.573621,305.436692 C267.789909,307.962561 268.398938,310.90881 268.398938,314.277235 C268.398938,317.64566 267.820006,320.820063 266.65506,323.79326 C265.493656,326.770049 263.889643,329.380354 261.843022,331.62597 C259.792859,333.873383 257.360283,335.66808 254.541753,337.013653 C254.2036,337.175338 253.851284,337.293906 253.50959,337.435829 C254.300974,342.338459 255.363234,347.196177 256.666273,352 C257.71437,351.674835 258.751844,351.319129 259.768073,350.909529 C264.636766,348.945961 268.868103,346.222478 272.465624,342.740874 C276.059605,339.261066 278.881676,335.077034 280.930068,330.192368 C282.976689,325.3095 284,320.002659 284,314.277235 C284,309.002731 283.22632,304.369575 281.677191,300.383156" id="Fill-118" fill="#ABDBEB"></path>
        <polygon id="Fill-119" fill="#ABDBEB" points="443 377 455 377 455 342 443 342"></polygon>
        <path d="M502,293.999102 C502,323.270399 478.494662,347 449.498221,347 C420.505338,347 397,323.270399 397,293.999102 C397,264.727804 420.505338,241 449.498221,241 C478.494662,241 502,264.727804 502,293.999102" id="Fill-120" fill="#E67B5C"></path>
        <path d="M438,360 L438,440.849493 C438,446.456592 442.597149,451 448.268349,451 L449.731651,451 C455.404653,451 460,446.456592 460,440.849493 L460,360 L438,360" id="Fill-121" fill="#E67B5C"></path>
        <path d="M491,294.500902 C491,317.42179 472.422598,336 449.497293,336 C426.577402,336 408,317.42179 408,294.500902 C408,271.580015 426.577402,253 449.497293,253 C472.422598,253 491,271.580015 491,294.500902" id="Fill-122" fill="#FFFFFE"></path>
    </g>
</svg>